<svg xmlns="http://www.w3.org/2000/svg" width="22.893" height="30" viewBox="0 0 22.893 30"><defs><style>.a{fill:#fff;}</style></defs><path class="a" d="M.748,0H16.01a.679.679,0,0,1,.524.224l6.135,6.135a.582.582,0,0,1,.224.524V29.252A.769.769,0,0,1,22.07,30H.748A.75.75,0,0,1,0,29.252V.748A.75.75,0,0,1,.748,0ZM21.4,7.855H16.01a.8.8,0,0,1-.748-.748V1.5H1.5V28.5H21.4Z"/><path class="a" d="M51.748,138.5a.75.75,0,0,1-.748-.748.707.707,0,0,1,.748-.748h10.1a.75.75,0,0,1,.748.748.8.8,0,0,1-.748.748Z" transform="translate(-47.185 -126.751)"/><path class="a" d="M51.748,194.5a.75.75,0,0,1-.748-.748.707.707,0,0,1,.748-.748H65.514a.75.75,0,0,1,.748.748.8.8,0,0,1-.748.748Z" transform="translate(-47.185 -178.561)"/><path class="a" d="M51.748,250.5a.75.75,0,0,1-.748-.748.707.707,0,0,1,.748-.748H65.514a.75.75,0,0,1,.748.748.8.8,0,0,1-.748.748Z" transform="translate(-47.185 -230.372)"/><path class="a" d="M51.748,306.5a.748.748,0,1,1,0-1.5H65.514a.748.748,0,1,1,0,1.5Z" transform="translate(-47.185 -282.182)"/></svg>