<svg xmlns="http://www.w3.org/2000/svg" width="31.266" height="30" viewBox="0 0 31.266 30"><defs><style>.a{fill:#fff;}</style></defs><circle class="a" cx="1.51" cy="1.51" r="1.51" transform="translate(18.555 12.301)"/><circle class="a" cx="1.51" cy="1.51" r="1.51" transform="translate(9.691 12.301)"/><path class="a" d="M41.088,56.708H33.845a3.051,3.051,0,1,0,0,6.1h7.243a3.051,3.051,0,1,0,0-6.1Zm1.57,2.53H40.933V58.1h.156A1.659,1.659,0,0,1,42.658,59.238ZM36.94,60.28v1.14H35.065V60.28Zm-1.875-1.042V58.1H36.94v1.14Zm2.917,1.042H39.89v1.14H37.982Zm0-1.042V58.1H39.89v1.14ZM33.845,58.1h.178v1.14H32.276A1.658,1.658,0,0,1,33.845,58.1ZM32.276,60.28h1.747v1.14h-.178A1.658,1.658,0,0,1,32.276,60.28Zm8.812,1.14h-.156V60.28h1.725A1.659,1.659,0,0,1,41.088,61.421Z" transform="translate(-21.833 -39.377)"/><path class="a" d="M34.345,16.343l-7.233-2.132-4.263-6.22a2.683,2.683,0,0,0-4.426,0l-4.263,6.22L6.927,16.343a2.683,2.683,0,0,0-1.367,4.21l4.6,5.976-.207,7.537a2.655,2.655,0,0,0,.756,1.942,2.721,2.721,0,0,0,2.825.659l7.1-2.526,7.1,2.526a2.682,2.682,0,0,0,3.581-2.6l-.207-7.537,4.6-5.976a2.683,2.683,0,0,0-1.367-4.209Zm-.009,3.15-4.787,6.221a.87.87,0,0,0-.18.553l.216,7.847a.934.934,0,0,1-.264.683.95.95,0,0,1-1,.234l-7.4-2.63a.866.866,0,0,0-.582,0l-7.4,2.63a.951.951,0,0,1-1-.234.934.934,0,0,1-.264-.683l.216-7.847a.868.868,0,0,0-.18-.553L6.936,19.494a.946.946,0,0,1,.482-1.484l7.529-2.22a.869.869,0,0,0,.471-.342l4.437-6.475a.946.946,0,0,1,1.56,0l4.437,6.475a.869.869,0,0,0,.471.342l7.529,2.22a.947.947,0,0,1,.483,1.484Z" transform="translate(-5.003 -6.825)"/></svg>